<svg width="14" height="14" viewBox="0 0 14 14" fill="none" xmlns="http://www.w3.org/2000/svg">
<path d="M7 14C3.14042 14 0 10.8599 0 7C0 3.14042 3.14009 0 7 0C10.8599 0 14 3.14009 14 7C14 10.8599 10.8599 14 7 14ZM7 1.39081C3.90718 1.39081 1.39089 3.90677 1.39089 6.99992C1.39089 10.0931 3.90685 12.609 7 12.609C10.0931 12.609 12.6091 10.0925 12.6091 6.99992C12.6091 3.9071 10.0931 1.39081 7 1.39081Z" fill="#E0514E"/>
<path d="M7.00777 8.733C6.6236 8.733 6.3125 8.42191 6.3125 8.03773V3.6484C6.3125 3.26422 6.6236 2.95312 7.00777 2.95312C7.39195 2.95312 7.70305 3.26422 7.70305 3.6484V8.03773C7.70305 8.42191 7.39163 8.733 7.00777 8.733Z" fill="#E0514E"/>
<path d="M7.00777 11.045C6.6236 11.045 6.3125 10.7339 6.3125 10.3498V10.1328C6.3125 9.7486 6.6236 9.4375 7.00777 9.4375C7.39195 9.4375 7.70305 9.7486 7.70305 10.1328V10.3498C7.70305 10.7339 7.39163 11.045 7.00777 11.045Z" fill="#E0514E"/>
</svg>
